<svg id="Layer_1" data-name="Layer 1" xmlns="http://www.w3.org/2000/svg" viewBox="0 0 546.02 632.4"><defs><style>.cls-1{fill:none;}.cls-2{fill:#e5007e;}.cls-3{fill:#fca00d;}.cls-4{fill:#f49a18;}.cls-5{fill:#1d1d1b;}.cls-6{fill:#a2195b;}.cls-7{fill:#c6812e;}</style></defs><title>cs-logo1</title><path class="cls-1" d="M226.1,122a50.63,50.63,0,0,0-1-6.8c-.5-2.3-1-4.5-1.7-6.7s-1.5-4.3-2.3-6.4c-.6-1.6-1.4-3.1-2.1-4.6a38.18,38.18,0,0,1,2.1,4.6,54.65,54.65,0,0,1,2.3,6.4c.6,2.2,1.2,4.4,1.7,6.7s.8,4.6,1,6.8.4,4.6.4,6.9h0C226.4,126.6,226.3,124.3,226.1,122Z" transform="translate(0 0)"/><path class="cls-1" d="M86.7,132.3v-.7A.85.85,0,0,0,86.7,132.3Z" transform="translate(0 0)"/><path class="cls-1" d="M87.9,115.3a54.82,54.82,0,0,1,1.7-6.7c.7-2.2,1.4-4.3,2.3-6.4.6-1.5,1.3-2.9,2-4.3-.7,1.4-1.4,2.9-2,4.3-.9,2.1-1.6,4.3-2.3,6.4s-1.2,4.4-1.7,6.7a50.63,50.63,0,0,0-1,6.8q-.3,3.45-.3,6.9h0q0-3.45.3-6.9C87.2,119.8,87.5,117.5,87.9,115.3Z" transform="translate(0 0)"/><path class="cls-2" d="M123.6,67.2c2-1.1,4.1-2,6.2-2.9s4.3-1.6,6.4-2.3,4.4-1.2,6.6-1.7a53.11,53.11,0,0,1,6.8-1,63.67,63.67,0,0,1,13.8,0c2.3.2,4.5.6,6.8,1s4.5,1,6.6,1.7,4.3,1.5,6.4,2.3,4.2,1.9,6.2,2.9,4,2.3,5.9,3.5a43.63,43.63,0,0,1,5.5,4.1,66.71,66.71,0,0,1,9.7,9.7c1.4,1.8,2.8,3.6,4.1,5.5s2.4,3.9,3.5,5.9c.3.5.5,1,.8,1.6a38.18,38.18,0,0,1,2.1,4.6,54.65,54.65,0,0,1,2.3,6.4c.6,2.2,1.2,4.4,1.7,6.7a50.63,50.63,0,0,1,1,6.8c.2,2.3.4,4.6.4,6.9h0a53.22,53.22,0,0,1-.4,6.9,50.63,50.63,0,0,1-1,6.8c-.5,2.3-1,4.5-1.7,6.7s-1.5,4.3-2.3,6.4a49.78,49.78,0,0,1-2.9,6.2c-1.1,2-2.2,4-3.5,5.9s-2.6,3.7-4.1,5.5-3,3.5-4.6,5.1a27.25,27.25,0,0,1-2.5,2.3,176.25,176.25,0,0,1,227.2,1.4A69.93,69.93,0,1,0,521.5,75.8a315.74,315.74,0,0,0-408.7-1.5c.7-.6,1.4-1,2.1-1.6.9-.7,1.8-1.4,2.7-2C119.6,69.5,121.5,68.3,123.6,67.2Z" transform="translate(0 0)"/><path class="cls-3" d="M521.5,556.6a315.73,315.73,0,0,1-409.4.9c1.8,1.5,3.6,2.8,5.5,4.1a50.82,50.82,0,0,0,5.9,3.5c2,1.1,4.1,2,6.2,2.9s4.3,1.6,6.4,2.3,4.4,1.2,6.6,1.7a53.11,53.11,0,0,0,6.8,1q3.45.3,6.9.3t6.9-.3c2.3-.2,4.5-.6,6.8-1s4.5-1,6.6-1.7,4.3-1.5,6.4-2.3,4.2-1.9,6.2-2.9,4-2.3,5.9-3.5a43.64,43.64,0,0,0,5.5-4.1c1.8-1.5,3.5-3,5.1-4.6a55.72,55.72,0,0,0,4.6-5.1c1.4-1.8,2.8-3.6,4.1-5.5s2.4-3.9,3.5-5.9a49.77,49.77,0,0,0,2.9-6.2,54.65,54.65,0,0,0,2.3-6.4c.6-2.2,1.2-4.4,1.7-6.7a50.63,50.63,0,0,0,1-6.8c.2-2.3.4-4.6.4-6.9a53.22,53.22,0,0,0-.4-6.9,50.63,50.63,0,0,0-1-6.8c-.5-2.3-1-4.5-1.7-6.7s-1.5-4.3-2.3-6.4-1.8-4.2-2.9-6.2-2.3-4-3.5-5.9-2.6-3.7-4.1-5.5-3-3.5-4.6-5.1a27.25,27.25,0,0,0-2.5-2.3,176.25,176.25,0,0,0,227.2-1.4,70,70,0,0,1,91,106.4Z" transform="translate(0 0)"/><path class="cls-4" d="M112.1,557.4a33.28,33.28,0,0,1-2.8-2.5Z" transform="translate(0 0)"/><path d="M139.9,316.2a175.84,175.84,0,0,0,60.9,133.1,55.24,55.24,0,0,0-5.5-4,50.82,50.82,0,0,0-5.9-3.5c-2-1.1-4.1-2-6.2-2.9s-4.3-1.6-6.4-2.3-4.4-1.2-6.6-1.7a53.11,53.11,0,0,0-6.8-1,63.67,63.67,0,0,0-13.8,0c-2.3.2-4.5.6-6.8,1s-4.4,1-6.6,1.7-4.3,1.5-6.4,2.3-4.2,1.9-6.2,2.9-4,2.3-5.9,3.5a56,56,0,0,0-4.9,3.6c-1.1.9-2.3,1.9-3.4,2.9-.8.7-1.6,1.5-2.4,2.3a55.72,55.72,0,0,0-4.6,5.1c-1.4,1.8-2.8,3.6-4.1,5.5s-2.4,3.9-3.5,5.9a49.78,49.78,0,0,0-2.9,6.2c-.9,2.1-1.6,4.3-2.3,6.4s-1.2,4.4-1.7,6.7a50.63,50.63,0,0,0-1,6.8q-.3,3.45-.3,6.9t.3,6.9c.2,2.3.6,4.6,1,6.8a50.56,50.56,0,0,0,1.7,6.7c.7,2.2,1.4,4.3,2.3,6.4s1.9,4.2,2.9,6.2,2.3,4,3.5,5.9,2.6,3.7,4.1,5.5,3,3.5,4.6,5.1c.7.7,1.5,1.5,2.3,2.2C42.4,497.3,0,411.8,0,316.5s42.4-181,109.4-239l-.8.8c-.5.5-1.1,1-1.6,1.5a55.72,55.72,0,0,0-4.6,5.1c-1.4,1.8-2.8,3.6-4.1,5.5s-2.4,3.9-3.5,5.9l-.9,1.8c-.7,1.4-1.4,2.9-2,4.3-.9,2.1-1.6,4.3-2.3,6.4s-1.2,4.4-1.7,6.7a50.63,50.63,0,0,0-1,6.8q-.3,3.45-.3,6.9a26.2,26.2,0,0,0,.1,2.8v.7c0,1.2.1,2.3.2,3.4.2,2.3.6,4.6,1,6.8a50.56,50.56,0,0,0,1.7,6.7c.7,2.2,1.4,4.3,2.3,6.4s1.9,4.2,2.9,6.2,2.3,4,3.5,5.9,2.6,3.7,4.1,5.5,3,3.5,4.6,5.1a55.72,55.72,0,0,0,5.1,4.6c1.8,1.5,3.6,2.8,5.5,4.1a50.81,50.81,0,0,0,5.9,3.5c2,1.1,4.1,2,6.2,2.9s4.3,1.6,6.4,2.3,4.4,1.2,6.6,1.7a53.11,53.11,0,0,0,6.8,1q3.45.3,6.9.3t6.9-.3c2.3-.2,4.5-.6,6.8-1s4.5-1,6.6-1.7,4.3-1.5,6.4-2.3,4.2-1.9,6.2-2.9,4-2.3,5.9-3.5a58.6,58.6,0,0,0,5-3.7c.2-.1.3-.2.5-.3A174.83,174.83,0,0,0,139.9,316.2Z" transform="translate(0 0)"/><path class="cls-5" d="M112.2,74.8c-.9.7-1.8,1.5-2.7,2.3,1.1-1,2.2-1.9,3.4-2.8C112.6,74.5,112.4,74.7,112.2,74.8Z" transform="translate(0 0)"/><path class="cls-6" d="M102.4,84.6c-1.4,1.8-2.8,3.6-4.1,5.5S95.9,94,94.8,96l-.9,1.8c-.7,1.4-1.4,2.9-2,4.3-.9,2.1-1.6,4.3-2.3,6.4s-1.2,4.4-1.7,6.7a50.63,50.63,0,0,0-1,6.8q-.3,3.45-.3,6.9a27.15,27.15,0,0,0,.1,2.8v.7c.1,1.1.1,2.3.3,3.4.2,2.3.6,4.6,1,6.8a50.56,50.56,0,0,0,1.7,6.7c.7,2.2,1.4,4.3,2.3,6.4s1.9,4.2,2.9,6.2,2.3,4,3.5,5.9,2.6,3.7,4.1,5.5,3,3.5,4.6,5.1a55.72,55.72,0,0,0,5.1,4.6c1.8,1.5,3.6,2.8,5.5,4.1a50.81,50.81,0,0,0,5.9,3.5c2,1.1,4.1,2,6.2,2.9s4.3,1.6,6.4,2.3,4.4,1.2,6.6,1.7a53.11,53.11,0,0,0,6.8,1q3.45.3,6.9.3t6.9-.3c2.3-.2,4.5-.6,6.8-1s4.5-1,6.6-1.7,4.3-1.5,6.4-2.3,4.2-1.9,6.2-2.9,4-2.3,5.9-3.5a58.6,58.6,0,0,0,5-3.7c.2-.1.3-.3.5-.4a28.48,28.48,0,0,0,2.6-2.3h0c.9-.8,1.7-1.6,2.5-2.4a55.72,55.72,0,0,0,4.6-5.1c1.4-1.8,2.8-3.6,4.1-5.5s2.4-3.9,3.5-5.9a49.77,49.77,0,0,0,2.9-6.2,54.66,54.66,0,0,0,2.3-6.4c.6-2.2,1.2-4.4,1.7-6.7a50.63,50.63,0,0,0,1-6.8c.2-2.3.4-4.6.4-6.9a53.23,53.23,0,0,0-.4-6.9,50.63,50.63,0,0,0-1-6.8c-.5-2.2-1-4.5-1.7-6.7s-1.5-4.3-2.3-6.4c-.6-1.6-1.4-3.1-2.1-4.6-.3-.5-.5-1-.8-1.6-1.1-2-2.3-4-3.5-5.9s-2.6-3.7-4.1-5.5-3-3.5-4.6-5.1a55.72,55.72,0,0,0-5.1-4.6c-1.8-1.5-3.6-2.8-5.5-4.1a50.82,50.82,0,0,0-5.9-3.5c-2-1.1-4.1-2-6.2-2.9s-4.3-1.6-6.4-2.3-4.4-1.2-6.6-1.7a53.11,53.11,0,0,0-6.8-1,63.67,63.67,0,0,0-13.8,0c-2.3.2-4.5.6-6.8,1s-4.4,1-6.6,1.7-4.3,1.5-6.4,2.3-4.2,1.9-6.2,2.9-4,2.3-5.9,3.5c-.9.6-1.8,1.3-2.7,2-.7.5-1.5,1-2.2,1.6L109.4,77l-.8.8c-.5.5-1.1,1-1.6,1.5C105.4,81.1,103.9,82.8,102.4,84.6Z" transform="translate(0 0)"/><path class="cls-5" d="M210.6,173.2c1.4-1.8,2.8-3.6,4.1-5.5s2.4-3.9,3.5-5.9a49.77,49.77,0,0,0,2.9-6.2,54.66,54.66,0,0,0,2.3-6.4c.6-2.2,1.2-4.4,1.7-6.7a50.63,50.63,0,0,0,1-6.8c.2-2.3.4-4.6.4-6.9h0a53.22,53.22,0,0,1-.4,6.9,50.63,50.63,0,0,1-1,6.8c-.5,2.3-1,4.5-1.7,6.7s-1.5,4.3-2.3,6.4-1.8,4.2-2.9,6.2-2.3,4-3.5,5.9-2.7,3.8-4.1,5.5-3,3.5-4.6,5.1c-.8.8-1.6,1.6-2.5,2.4h0c.8-.8,1.7-1.5,2.5-2.3C207.6,176.7,209.1,175,210.6,173.2Z" transform="translate(0 0)"/><path class="cls-5" d="M123.6,67.3c2-1.1,4.1-2,6.2-2.9s4.3-1.6,6.4-2.3,4.4-1.2,6.6-1.7a53.11,53.11,0,0,1,6.8-1,63.67,63.67,0,0,1,13.8,0c2.3.2,4.5.6,6.8,1s4.5,1,6.6,1.7,4.3,1.5,6.4,2.3,4.2,1.9,6.2,2.9,4,2.3,5.9,3.5a43.63,43.63,0,0,1,5.5,4.1,66.71,66.71,0,0,1,9.7,9.7c1.4,1.8,2.8,3.6,4.1,5.5S217,94,218.1,96c.3.5.5,1,.8,1.6-.3-.5-.5-1.1-.8-1.6-1.1-2-2.2-4-3.5-5.9s-2.6-3.7-4.1-5.5-3-3.5-4.6-5.1a55.72,55.72,0,0,0-5.1-4.6c-1.8-1.5-3.6-2.8-5.5-4.1a50.82,50.82,0,0,0-5.9-3.5c-2-1.1-4.1-2-6.2-2.9s-4.3-1.6-6.4-2.3-4.4-1.2-6.6-1.7a53.11,53.11,0,0,0-6.8-1,63.67,63.67,0,0,0-13.8,0c-2.2.2-4.5.6-6.8,1s-4.4,1-6.6,1.7-4.4,1.5-6.4,2.3a49.77,49.77,0,0,0-6.2,2.9c-2,1.1-4,2.2-5.9,3.5-.9.6-1.8,1.3-2.7,2,.9-.7,1.8-1.4,2.7-2A43.63,43.63,0,0,1,123.6,67.3Z" transform="translate(0 0)"/><path class="cls-5" d="M102.4,84.6c-1.4,1.8-2.8,3.6-4.1,5.5S95.9,94,94.8,96l-.9,1.8.9-1.8c1.1-2,2.3-4,3.5-5.9s2.7-3.7,4.1-5.5,3-3.5,4.6-5.1c.5-.5,1.1-1,1.6-1.5-.5.5-1.1,1-1.6,1.5C105.4,81.1,103.9,82.8,102.4,84.6Z" transform="translate(0 0)"/><path class="cls-5" d="M86.6,128.9a27.15,27.15,0,0,0,.1,2.8,27.15,27.15,0,0,1-.1-2.8Z" transform="translate(0 0)"/><path class="cls-5" d="M189.4,190.6c-2,1.1-4.1,2-6.2,2.9s-4.3,1.6-6.4,2.3-4.4,1.2-6.6,1.7a53.11,53.11,0,0,1-6.8,1q-3.45.3-6.9.3t-6.9-.3c-2.3-.2-4.5-.6-6.8-1s-4.4-1-6.6-1.7-4.3-1.5-6.4-2.3-4.2-1.9-6.2-2.9-4-2.3-5.9-3.5a43.63,43.63,0,0,1-5.5-4.1c-1.8-1.5-3.5-3-5.1-4.6a55.72,55.72,0,0,1-4.6-5.1c-1.4-1.8-2.8-3.6-4.1-5.5s-2.4-3.9-3.5-5.9a49.78,49.78,0,0,1-2.9-6.2c-.9-2.1-1.6-4.3-2.3-6.4s-1.2-4.4-1.7-6.7a50.63,50.63,0,0,1-1-6.8c-.1-1.1-.2-2.3-.3-3.4.1,1.2.1,2.3.3,3.4.2,2.3.6,4.6,1,6.8a50.56,50.56,0,0,0,1.7,6.7c.7,2.2,1.4,4.3,2.3,6.4s1.9,4.2,2.9,6.2,2.3,4,3.5,5.9,2.6,3.7,4.1,5.5,3,3.5,4.6,5.1a55.72,55.72,0,0,0,5.1,4.6c1.8,1.5,3.6,2.8,5.5,4.1a50.81,50.81,0,0,0,5.9,3.5c2,1.1,4.1,2,6.2,2.9s4.3,1.6,6.4,2.3,4.4,1.2,6.6,1.7a53.11,53.11,0,0,0,6.8,1q3.45.3,6.9.3t6.9-.3c2.3-.2,4.5-.6,6.8-1s4.5-1,6.6-1.7,4.3-1.5,6.4-2.3,4.2-1.9,6.2-2.9,4-2.2,5.9-3.5a58.6,58.6,0,0,0,5-3.7c-1.6,1.3-3.3,2.5-5,3.7C193.4,188.3,191.5,189.5,189.4,190.6Z" transform="translate(0 0)"/><path class="cls-5" d="M202.9,451.1a2.65,2.65,0,0,0,.6.5C203.3,451.4,203.1,451.3,202.9,451.1Z" transform="translate(0 0)"/><path class="cls-7" d="M195.3,445.3a50.82,50.82,0,0,0-5.9-3.5c-2-1.1-4.1-2-6.2-2.9s-4.3-1.6-6.4-2.3-4.4-1.2-6.6-1.7a53.11,53.11,0,0,0-6.8-1,63.67,63.67,0,0,0-13.8,0c-2.2.2-4.5.6-6.8,1s-4.4,1-6.6,1.7-4.4,1.5-6.4,2.3-4.2,1.9-6.2,2.9-4,2.3-5.9,3.5a56,56,0,0,0-4.9,3.6l-3.4,2.8c-.8.7-1.6,1.5-2.4,2.3a55.72,55.72,0,0,0-4.6,5.1c-1.4,1.8-2.8,3.6-4.1,5.5s-2.4,3.9-3.5,5.9a49.78,49.78,0,0,0-2.9,6.2c-.9,2.1-1.6,4.3-2.3,6.4s-1.2,4.4-1.7,6.7a50.63,50.63,0,0,0-1,6.8q-.3,3.45-.3,6.9t.3,6.9c.2,2.3.6,4.6,1,6.8a50.56,50.56,0,0,0,1.7,6.7c.7,2.2,1.4,4.3,2.3,6.4s1.9,4.2,2.9,6.2,2.3,4,3.5,5.9,2.6,3.7,4.1,5.5,3,3.5,4.6,5.1a55.72,55.72,0,0,0,5.1,4.6c1.8,1.5,3.6,2.8,5.5,4.1a50.82,50.82,0,0,0,5.9,3.5c2,1.1,4.1,2,6.2,2.9s4.3,1.6,6.4,2.3,4.4,1.2,6.6,1.7a53.11,53.11,0,0,0,6.8,1q3.45.3,6.9.3t6.9-.3c2.3-.2,4.5-.6,6.8-1s4.5-1,6.6-1.7,4.3-1.5,6.4-2.3,4.2-1.9,6.2-2.9,4-2.2,5.9-3.5a43.64,43.64,0,0,0,5.5-4.1c1.8-1.5,3.5-3,5.1-4.6a55.72,55.72,0,0,0,4.6-5.1c1.4-1.8,2.8-3.6,4.1-5.5s2.4-3.9,3.5-5.9a49.77,49.77,0,0,0,2.9-6.2,54.65,54.65,0,0,0,2.3-6.4c.6-2.2,1.2-4.4,1.7-6.7a50.63,50.63,0,0,0,1-6.8c.2-2.3.4-4.6.4-6.9a53.22,53.22,0,0,0-.4-6.9,50.63,50.63,0,0,0-1-6.8c-.5-2.2-1-4.5-1.7-6.7s-1.5-4.3-2.3-6.4a49.78,49.78,0,0,0-2.9-6.2c-1.1-2-2.2-4-3.5-5.9s-2.6-3.7-4.1-5.5-3-3.5-4.6-5.1c-.8-.8-1.6-1.6-2.4-2.3a2.65,2.65,0,0,0-.6-.5c-.7-.6-1.3-1.2-2-1.7A36.42,36.42,0,0,0,195.3,445.3Z" transform="translate(0 0)"/></svg>