<?xml version="1.0" encoding="utf-8"?>
<!-- Generator: Adobe Illustrator 20.0.0, SVG Export Plug-In . SVG Version: 6.00 Build 0)  -->
<svg version="1.1" id="Layer_1" xmlns="http://www.w3.org/2000/svg" xmlns:xlink="http://www.w3.org/1999/xlink" x="0px" y="0px"
	 viewBox="0 0 1436.2 313" style="enable-background:new 0 0 1436.2 313;" xml:space="preserve">
<style type="text/css">
	.st0{fill:none;}
	.st1{fill:#E40D7E;}
	.st2{fill:#FCA00D;}
	.st3{fill:#F59B1B;}
	.st4{fill:#010101;}
	.st5{fill:#1E1E1C;}
	.st6{fill:#A31B5C;}
	.st7{fill:#C6812F;}
</style>
<title>CSI_Logo_WEB_Colour_RBG</title>
<g>
	<path class="st0" d="M111.9,60.4c-0.1-1.1-0.3-2.2-0.5-3.4c-0.2-1.1-0.5-2.2-0.8-3.3c-0.3-1.1-0.7-2.2-1.2-3.2
		c-0.3-0.8-0.7-1.5-1-2.3c0.4,0.8,0.7,1.5,1,2.3c0.4,1,0.8,2.1,1.2,3.2c0.3,1.1,0.6,2.2,0.8,3.3C111.6,58.2,111.8,59.3,111.9,60.4
		c0.1,1.1,0.2,2.3,0.2,3.4l0,0C112.1,62.7,112,61.5,111.9,60.4z"/>
	<path class="st0" d="M42.9,65.5c0-0.1,0-0.2,0-0.3C42.9,65.3,42.9,65.4,42.9,65.5z"/>
	<path class="st0" d="M43.5,57c0.2-1.1,0.5-2.2,0.8-3.2c0.3-1.1,0.7-2.2,1.1-3.2c0.3-0.7,0.6-1.4,1-2.2c-0.4,0.7-0.7,1.4-1,2.1
		c-0.4,1-0.8,2.1-1.1,3.2C44,54.9,43.7,56,43.5,57c-0.2,1.1-0.4,2.3-0.5,3.4c-0.1,1.1-0.2,2.3-0.2,3.4l0,0c0-1.1,0.1-2.3,0.2-3.4
		C43.1,59.3,43.3,58.1,43.5,57z"/>
	<path class="st1" d="M61.1,33.3c1-0.5,2-1,3.1-1.4c1-0.4,2.1-0.8,3.2-1.1s2.2-0.6,3.3-0.8c1.1-0.2,2.2-0.4,3.4-0.5
		c2.3-0.2,4.6-0.2,6.8,0c1.1,0.1,2.2,0.3,3.4,0.5c1.1,0.2,2.2,0.5,3.3,0.8c1.1,0.3,2.2,0.7,3.2,1.1s2.1,0.9,3.1,1.4
		c1,0.5,2,1.1,2.9,1.7c0.9,0.6,1.9,1.3,2.7,2c1.8,1.4,3.4,3.1,4.8,4.8c0.7,0.9,1.4,1.8,2,2.7s1.2,1.9,1.7,2.9
		c0.1,0.3,0.3,0.5,0.4,0.8c0.4,0.7,0.7,1.5,1,2.3c0.4,1,0.8,2.1,1.2,3.2c0.3,1.1,0.6,2.2,0.8,3.3c0.2,1.1,0.4,2.2,0.5,3.4
		c0.1,1.1,0.2,2.3,0.2,3.4l0,0c0,1.1-0.1,2.3-0.2,3.4c-0.1,1.1-0.3,2.2-0.5,3.4c-0.2,1.1-0.5,2.2-0.8,3.3c-0.3,1.1-0.7,2.2-1.2,3.2
		c-0.4,1-0.9,2.1-1.4,3.1c-0.5,1-1.1,2-1.7,2.9s-1.3,1.9-2,2.7c-0.7,0.9-1.5,1.7-2.3,2.5c-0.4,0.4-0.8,0.8-1.2,1.2
		c32.7-27.2,80.2-26.9,112.5,0.7c15,11.9,36.8,9.4,48.7-5.5c11.3-14.2,9.7-34.8-3.7-47.1c-58.2-49.7-143.8-50-202.4-0.7
		c0.3-0.3,0.7-0.5,1.1-0.8c0.4-0.3,0.9-0.7,1.3-1C59.2,34.4,60.1,33.8,61.1,33.3z"/>
	<path class="st2" d="M258.2,275.5c-58.3,49.9-144.2,50-202.7,0.4c0.9,0.7,1.8,1.4,2.7,2c0.9,0.6,1.9,1.2,2.9,1.7c1,0.5,2,1,3.1,1.4
		s2.1,0.8,3.2,1.1s2.2,0.6,3.3,0.8c1.1,0.2,2.2,0.4,3.4,0.5s2.3,0.2,3.4,0.2c1.1,0,2.3,0,3.4-0.2c1.1-0.2,2.2-0.3,3.4-0.5
		c1.1-0.2,2.2-0.5,3.3-0.8c1.1-0.3,2.2-0.7,3.2-1.1c1-0.4,2.1-0.9,3.1-1.4c1-0.5,2-1.1,2.9-1.7c0.9-0.6,1.9-1.3,2.7-2
		c0.9-0.7,1.7-1.5,2.5-2.3c0.8-0.8,1.6-1.7,2.3-2.5c0.7-0.9,1.4-1.8,2-2.7s1.2-1.9,1.7-2.9c0.5-1,1-2,1.4-3.1c0.4-1,0.8-2.1,1.2-3.2
		c0.3-1.1,0.6-2.2,0.8-3.3c0.2-1.1,0.4-2.2,0.5-3.4c0.2-2.3,0.2-4.5,0-6.8c-0.1-1.1-0.3-2.2-0.5-3.4c-0.2-1.1-0.5-2.2-0.8-3.3
		c-0.3-1.1-0.7-2.2-1.2-3.2c-0.4-1-0.9-2.1-1.4-3.1c-0.5-1-1.1-2-1.7-2.9c-0.6-0.9-1.3-1.9-2-2.7c-0.7-0.9-1.4-1.7-2.2-2.5
		c-0.4-0.4-0.8-0.8-1.2-1.1c32.6,27.2,80.2,26.9,112.5-0.7c14.5-12.4,36.4-10.7,48.8,3.8C274.5,241.2,272.7,263.1,258.2,275.5
		L258.2,275.5L258.2,275.5z"/>
	<path class="st3" d="M55.5,275.9c-0.5-0.4-0.9-0.8-1.4-1.2L55.5,275.9z"/>
	<path class="st4" d="M69.2,156.5c0,25.3,11,49.3,30.1,65.8c-0.9-0.7-1.8-1.4-2.7-2c-0.9-0.6-1.9-1.2-2.9-1.7c-1-0.5-2-1-3.1-1.4
		c-1-0.4-2.1-0.8-3.2-1.1c-1.1-0.3-2.2-0.6-3.3-0.8c-1.1-0.2-2.2-0.4-3.4-0.5c-2.3-0.2-4.5-0.2-6.8,0c-1.1,0.1-2.2,0.3-3.4,0.5
		s-2.2,0.5-3.3,0.8s-2.2,0.7-3.2,1.1c-1,0.4-2.1,0.9-3.1,1.4c-1,0.5-2,1.1-2.9,1.7c-0.8,0.5-1.6,1.1-2.4,1.8l-1.7,1.4
		c-0.4,0.4-0.8,0.8-1.2,1.1c-0.8,0.8-1.6,1.7-2.3,2.5c-0.7,0.9-1.4,1.8-2,2.7s-1.2,1.9-1.7,2.9c-0.5,1-1,2-1.4,3.1
		c-0.4,1-0.8,2.1-1.1,3.2c-0.3,1.1-0.6,2.2-0.8,3.3c-0.2,1.1-0.4,2.2-0.5,3.4c-0.2,2.3-0.2,4.5,0,6.8c0.1,1.1,0.3,2.3,0.5,3.4
		c0.2,1.1,0.5,2.2,0.8,3.3c0.3,1.1,0.7,2.2,1.1,3.2c0.4,1,0.9,2.1,1.4,3.1c0.5,1,1.1,2,1.7,2.9c0.6,0.9,1.3,1.9,2,2.7
		c0.7,0.9,1.5,1.7,2.3,2.5c0.4,0.4,0.8,0.7,1.1,1.1C-11.2,218.3-18.4,119.6,38,54.3c5-5.8,10.4-11.1,16.1-16.1l-0.4,0.4l-0.8,0.8
		c-0.8,0.8-1.6,1.7-2.3,2.5c-0.7,0.9-1.4,1.8-2,2.7c-0.6,0.9-1.2,1.9-1.7,2.9c-0.2,0.3-0.3,0.6-0.5,0.9c-0.4,0.7-0.7,1.4-1,2.1
		c-0.4,1-0.8,2.1-1.1,3.2c-0.3,1.1-0.6,2.2-0.8,3.3c-0.2,1.1-0.4,2.2-0.5,3.4c-0.1,1.1-0.2,2.3-0.2,3.4c0,0.5,0,0.9,0,1.4
		c0,0.1,0,0.2,0,0.3c0,0.6,0,1.1,0.1,1.7c0.1,1.1,0.3,2.3,0.5,3.4c0.2,1.1,0.5,2.2,0.8,3.3c0.3,1.1,0.7,2.2,1.1,3.2
		c0.4,1,0.9,2.1,1.4,3.1c0.5,1,1.1,2,1.7,2.9c0.6,0.9,1.3,1.9,2,2.7c0.7,0.9,1.5,1.7,2.3,2.5c0.8,0.8,1.7,1.6,2.5,2.3
		c0.9,0.7,1.8,1.4,2.7,2c0.9,0.6,1.9,1.2,2.9,1.7c1,0.5,2,1,3.1,1.4c1,0.4,2.1,0.8,3.2,1.1s2.2,0.6,3.3,0.8c1.1,0.2,2.2,0.4,3.4,0.5
		c1.1,0.1,2.3,0.2,3.4,0.2c1.1,0,2.3,0,3.4-0.2c1.1-0.2,2.2-0.3,3.4-0.5c1.1-0.2,2.2-0.5,3.3-0.8c1.1-0.3,2.2-0.7,3.2-1.1
		c1-0.4,2.1-0.9,3.1-1.4c1-0.5,2-1.1,2.9-1.7c0.9-0.6,1.8-1.2,2.6-1.8l0.2-0.2C80.2,107.1,69.2,131.2,69.2,156.5z"/>
	<path class="st5" d="M55.5,37c-0.5,0.4-0.9,0.8-1.3,1.1l1.7-1.4L55.5,37z"/>
	<path class="st6" d="M50.7,41.9c-0.7,0.9-1.4,1.8-2,2.7c-0.6,0.9-1.2,1.9-1.7,2.9c-0.2,0.3-0.3,0.6-0.5,0.9c-0.4,0.7-0.7,1.4-1,2.2
		c-0.4,1-0.8,2.1-1.1,3.2c-0.3,1.1-0.6,2.2-0.8,3.3c-0.2,1.1-0.4,2.2-0.5,3.4c-0.1,1.1-0.2,2.3-0.2,3.4c0,0.5,0,0.9,0,1.4
		c0,0.1,0,0.2,0,0.3c0,0.6,0,1.1,0.1,1.7c0.1,1.1,0.3,2.3,0.5,3.4c0.2,1.1,0.5,2.2,0.8,3.3c0.3,1.1,0.7,2.2,1.1,3.2
		c0.4,1,0.9,2.1,1.4,3.1c0.5,1,1.1,2,1.7,2.9c0.6,0.9,1.3,1.9,2,2.7c0.7,0.9,1.5,1.7,2.3,2.5c0.8,0.8,1.7,1.6,2.5,2.3
		c0.9,0.7,1.8,1.4,2.7,2c0.9,0.6,1.9,1.2,2.9,1.7c1,0.5,2,1,3.1,1.4s2.1,0.8,3.2,1.1c1.1,0.3,2.2,0.6,3.3,0.8
		c1.1,0.2,2.2,0.4,3.4,0.5c1.1,0.1,2.3,0.2,3.4,0.2c1.1,0,2.3,0,3.4-0.2s2.2-0.3,3.4-0.5c1.1-0.2,2.2-0.5,3.3-0.8
		c1.1-0.3,2.2-0.7,3.2-1.1s2.1-0.9,3.1-1.4c1-0.5,2-1.1,2.9-1.7c0.8-0.6,1.7-1.2,2.5-1.8l0.3-0.2c0.4-0.4,0.9-0.7,1.3-1.1l0,0
		l1.2-1.2c0.8-0.8,1.6-1.7,2.3-2.5c0.7-0.9,1.4-1.8,2-2.7c0.6-0.9,1.2-1.9,1.7-2.9c0.5-1,1-2,1.4-3.1c0.4-1,0.8-2.1,1.2-3.2
		s0.6-2.2,0.8-3.3c0.3-1.1,0.4-2.2,0.6-3.4c0.2-2.3,0.2-4.5,0-6.8c-0.1-1.1-0.3-2.2-0.5-3.4c-0.2-1.1-0.5-2.2-0.8-3.3
		c-0.3-1.1-0.7-2.2-1.2-3.2c-0.3-0.8-0.7-1.5-1-2.3c-0.1-0.3-0.3-0.5-0.4-0.8c-0.5-1-1.1-2-1.7-2.9c-0.6-0.9-1.3-1.9-2-2.7
		c-1.4-1.8-3.1-3.4-4.8-4.8c-0.9-0.7-1.8-1.4-2.7-2c-0.9-0.6-1.9-1.2-2.9-1.7c-1-0.5-2-1-3.1-1.4c-1-0.4-2.1-0.8-3.2-1.1
		c-1.1-0.3-2.2-0.6-3.3-0.8c-1.1-0.2-2.2-0.4-3.4-0.5c-2.3-0.2-4.5-0.2-6.8,0c-1.1,0.1-2.2,0.3-3.4,0.5s-2.2,0.5-3.3,0.8
		c-1.1,0.3-2.2,0.7-3.2,1.1c-1,0.4-2.1,0.9-3.1,1.4c-1,0.5-2,1.1-2.9,1.7c-0.5,0.3-0.9,0.7-1.4,1s-0.7,0.5-1.1,0.8l-1.7,1.4
		l-0.4,0.4l-0.8,0.8C52.1,40.1,51.4,41,50.7,41.9z"/>
	<path class="st5" d="M104.2,85.7c0.7-0.9,1.4-1.8,2-2.7c0.6-0.9,1.2-1.9,1.7-2.9c0.5-1,1-2,1.4-3.1c0.4-1,0.8-2.1,1.2-3.2
		s0.6-2.2,0.8-3.3c0.2-1.1,0.4-2.2,0.5-3.4c0.1-1.1,0.2-2.3,0.2-3.4l0,0c0,1.1-0.1,2.3-0.2,3.4c-0.1,1.1-0.3,2.2-0.5,3.4
		c-0.2,1.1-0.5,2.2-0.8,3.3c-0.3,1.1-0.7,2.2-1.2,3.2c-0.4,1-0.9,2.1-1.4,3.1c-0.5,1-1.1,2-1.7,2.9S105,84.9,104.2,85.7
		c-0.7,0.9-1.4,1.7-2.3,2.5l-1.2,1.2l0,0c0.4-0.4,0.8-0.8,1.2-1.2C102.8,87.5,103.5,86.6,104.2,85.7z"/>
	<path class="st5" d="M61.1,33.3c1-0.5,2-1,3.1-1.4c1-0.4,2.1-0.8,3.2-1.1s2.2-0.6,3.3-0.8c1.1-0.2,2.2-0.4,3.4-0.5
		c2.3-0.2,4.5-0.2,6.8,0c1.1,0.1,2.2,0.3,3.4,0.5c1.1,0.2,2.2,0.5,3.3,0.8c1.1,0.3,2.2,0.7,3.2,1.1s2.1,0.9,3.1,1.4
		c1,0.5,2,1.1,2.9,1.7c0.9,0.6,1.9,1.3,2.7,2c1.8,1.4,3.4,3.1,4.8,4.8c0.7,0.9,1.4,1.8,2,2.7c0.6,0.9,1.2,1.9,1.7,2.9
		c0.1,0.3,0.3,0.5,0.4,0.8c-0.1-0.3-0.3-0.5-0.4-0.8c-0.5-1-1.1-2-1.7-2.9s-1.3-1.9-2-2.7c-1.4-1.8-3.1-3.4-4.8-4.8
		c-0.9-0.7-1.8-1.4-2.7-2c-0.9-0.6-1.9-1.2-2.9-1.7c-1-0.5-2-1-3.1-1.4c-1-0.4-2.1-0.8-3.2-1.1c-1.1-0.3-2.2-0.6-3.3-0.8
		c-1.1-0.2-2.2-0.4-3.4-0.5c-2.3-0.2-4.6-0.2-6.8,0c-1.1,0.1-2.2,0.3-3.4,0.5s-2.2,0.5-3.3,0.8c-1.1,0.3-2.2,0.7-3.2,1.1
		C63.2,32.3,62.1,32.8,61.1,33.3c-1,0.5-2,1.1-2.9,1.7c-0.5,0.3-0.9,0.7-1.3,1c0.5-0.3,0.9-0.7,1.4-1C59.2,34.4,60.2,33.8,61.1,33.3
		z"/>
	<path class="st5" d="M50.7,41.8c-0.7,0.9-1.4,1.8-2,2.7s-1.2,1.9-1.7,2.9c-0.2,0.3-0.3,0.6-0.5,0.9c0.2-0.3,0.3-0.6,0.5-0.9
		c0.5-1,1.1-2,1.7-2.9C49.3,43.6,50,42.7,50.7,41.8c0.7-0.9,1.5-1.7,2.3-2.5l0.8-0.8L53,39.3C52.2,40.1,51.4,41,50.7,41.8z"/>
	<path class="st5" d="M42.8,63.8c0,0.5,0,0.9,0,1.4C42.8,64.8,42.8,64.3,42.8,63.8z"/>
	<path class="st5" d="M93.8,94.3c-1,0.5-2,1-3.1,1.4c-1,0.4-2.1,0.8-3.2,1.1s-2.2,0.6-3.3,0.8c-1.1,0.2-2.2,0.4-3.4,0.5
		c-1.1,0.1-2.3,0.2-3.4,0.2s-2.3,0-3.4-0.2s-2.2-0.3-3.4-0.5c-1.1-0.2-2.2-0.5-3.3-0.8c-1.1-0.3-2.2-0.7-3.2-1.1
		c-1-0.4-2.1-0.9-3.1-1.4c-1-0.5-2-1.1-2.9-1.7c-1-0.6-1.9-1.3-2.7-2c-0.9-0.7-1.7-1.5-2.5-2.3c-0.8-0.8-1.6-1.7-2.3-2.5
		c-0.7-0.9-1.4-1.8-2-2.7s-1.2-1.9-1.7-2.9c-0.5-1-1-2-1.4-3.1c-0.4-1-0.8-2.1-1.1-3.2c-0.3-1.1-0.6-2.2-0.8-3.3
		c-0.2-1.1-0.4-2.2-0.5-3.4c0-0.6-0.1-1.1-0.1-1.7c0,0.6,0,1.1,0.1,1.7c0.1,1.1,0.3,2.3,0.5,3.4c0.2,1.1,0.5,2.2,0.8,3.3
		c0.3,1.1,0.7,2.2,1.1,3.2c0.4,1,0.9,2.1,1.4,3.1c0.5,1,1.1,2,1.7,2.9s1.3,1.9,2,2.7c0.7,0.9,1.5,1.7,2.3,2.5
		c0.8,0.8,1.7,1.6,2.5,2.3c0.9,0.7,1.8,1.4,2.7,2c0.9,0.6,1.9,1.2,2.9,1.7c1,0.5,2,1,3.1,1.4c1,0.4,2.1,0.8,3.2,1.1s2.2,0.6,3.3,0.8
		c1.1,0.2,2.2,0.4,3.4,0.5c1.1,0.1,2.3,0.2,3.4,0.2c1.1,0,2.3,0,3.4-0.2s2.2-0.3,3.4-0.5c1.1-0.2,2.2-0.5,3.3-0.8s2.2-0.7,3.2-1.1
		S92.8,94.9,93.8,94.3c1-0.5,2-1,2.9-1.7c0.9-0.6,1.7-1.2,2.5-1.9c-0.8,0.6-1.6,1.2-2.5,1.8C95.7,93.2,94.8,93.8,93.8,94.3z"/>
	<path class="st5" d="M100.4,223.3l0.3,0.3L100.4,223.3z"/>
	<path class="st7" d="M96.7,220.4c-0.9-0.6-1.9-1.2-2.9-1.7c-1-0.5-2-1-3.1-1.4c-1-0.4-2.1-0.8-3.2-1.1c-1.1-0.3-2.2-0.6-3.3-0.8
		s-2.2-0.4-3.4-0.5c-2.3-0.2-4.6-0.2-6.8,0c-1.1,0.1-2.2,0.3-3.4,0.5c-1.1,0.2-2.2,0.5-3.3,0.8c-1.1,0.3-2.2,0.7-3.2,1.1
		c-1,0.4-2.1,0.9-3.1,1.4c-1,0.5-2,1.1-2.9,1.7c-0.8,0.5-1.6,1.1-2.4,1.8l-1.7,1.4c-0.4,0.4-0.8,0.8-1.2,1.1
		c-0.8,0.8-1.6,1.7-2.3,2.5c-0.7,0.9-1.4,1.8-2,2.7s-1.2,1.9-1.7,2.9c-0.5,1-1,2-1.4,3.1c-0.4,1-0.8,2.1-1.1,3.2
		c-0.3,1.1-0.6,2.2-0.8,3.3c-0.2,1.1-0.4,2.2-0.5,3.4c-0.2,2.3-0.2,4.5,0,6.8c0.1,1.1,0.3,2.3,0.5,3.4c0.2,1.1,0.5,2.2,0.8,3.3
		c0.3,1.1,0.7,2.2,1.1,3.2c0.4,1,0.9,2.1,1.4,3.1c0.5,1,1.1,2,1.7,2.9s1.3,1.9,2,2.7c0.7,0.9,1.5,1.7,2.3,2.5
		c0.8,0.8,1.7,1.6,2.5,2.3c0.9,0.7,1.8,1.4,2.7,2c0.9,0.6,1.9,1.2,2.9,1.7c1,0.5,2,1,3.1,1.4c1,0.4,2.1,0.8,3.2,1.1s2.2,0.6,3.3,0.8
		c1.1,0.2,2.2,0.4,3.4,0.5s2.3,0.2,3.4,0.2c1.1,0,2.3,0,3.4-0.2s2.2-0.3,3.4-0.5c1.1-0.2,2.2-0.5,3.3-0.8c1.1-0.3,2.2-0.7,3.2-1.1
		c1-0.4,2.1-0.9,3.1-1.4c1-0.5,2-1.1,2.9-1.7c0.9-0.6,1.9-1.3,2.7-2c0.9-0.7,1.7-1.5,2.5-2.3c0.8-0.8,1.6-1.7,2.3-2.5
		c0.7-0.9,1.4-1.8,2-2.7s1.2-1.9,1.7-2.9c0.5-1,1-2,1.4-3.1c0.4-1,0.8-2.1,1.2-3.2c0.3-1.1,0.6-2.2,0.8-3.3c0.2-1.1,0.4-2.2,0.5-3.4
		c0.2-2.3,0.2-4.5,0-6.8c-0.1-1.1-0.3-2.2-0.5-3.4c-0.2-1.1-0.5-2.2-0.8-3.3c-0.3-1.1-0.7-2.2-1.2-3.2c-0.4-1-0.9-2.1-1.4-3.1
		c-0.5-1-1.1-2-1.7-2.9s-1.3-1.9-2-2.7c-0.7-0.9-1.5-1.7-2.3-2.5c-0.4-0.4-0.8-0.8-1.2-1.1l-0.3-0.3c-0.3-0.3-0.7-0.6-1-0.9
		C98.6,221.7,97.6,221,96.7,220.4z"/>
</g>
<path d="M331.3,155.4c0-8.6,1.5-17.1,4.5-25.2c2.9-8.2,7.3-15.9,13-22.5c5.8-6.7,12.9-12.2,20.9-16.1c8.2-4.2,17.6-6.2,28.2-6.2
	c12.5,0,23.2,2.9,32.1,8.6c8.5,5.4,15.3,13,19.8,22l-8.3,4.8c-2.3-4.5-5.2-8.7-8.8-12.3c-3.2-3.2-6.9-5.9-10.9-8
	c-3.8-2-7.9-3.6-12.2-4.5c-4.1-0.9-8.3-1.4-12.5-1.4c-8.2-0.2-16.4,1.7-23.8,5.5c-6.7,3.5-12.6,8.3-17.4,14.2
	c-4.8,5.8-8.4,12.5-10.8,19.7c-2.4,7.1-3.7,14.6-3.7,22.1c0,8.1,1.4,16.2,4.4,23.8c2.8,7.3,6.8,14,11.9,19.9
	c5,5.7,11,10.4,17.8,13.8c6.9,3.4,14.5,5.2,22.2,5.1c4.4,0,8.8-0.6,13-1.6c4.5-1.1,8.8-2.8,12.9-5c4.2-2.3,8.1-5.2,11.5-8.6
	c3.6-3.6,6.6-7.8,8.9-12.4l8.7,4.2c-2.3,5.2-5.6,10-9.7,14.1c-4,4.1-8.6,7.5-13.7,10.3c-5,2.8-10.4,4.9-15.9,6.2
	c-5.4,1.4-11,2.1-16.5,2.1c-9.2,0.1-18.3-2.1-26.4-6.3c-7.9-4.1-14.9-9.7-20.7-16.5c-5.8-6.9-10.4-14.7-13.6-23.2
	C332.9,173.4,331.3,164.4,331.3,155.4z"/>
<path d="M579.1,109.5c-9.1-10.2-22-15.2-38.6-15.2c-13.7,0-23.7,2.6-30,7.8c-6.3,5.2-9.4,12.2-9.4,21.1c-0.1,3.9,0.7,7.7,2.4,11.2
	c1.8,3.2,4.3,5.8,7.4,7.6c4,2.4,8.3,4.2,12.8,5.3c5.1,1.5,11.4,3,18.6,4.6c7.5,1.6,14.4,3.3,20.5,5.3c5.5,1.6,10.8,4.1,15.6,7.2
	c4.1,2.7,7.5,6.4,9.9,10.7c2.3,4.2,3.5,9.4,3.5,15.6c0.1,5.6-1.1,11.2-3.7,16.2c-2.5,4.6-6,8.6-10.3,11.6c-4.8,3.3-10.2,5.6-15.8,7
	c-6.7,1.7-13.6,2.5-20.5,2.4c-21.9,0-40.5-7-55.6-21l5.4-8.1c6.2,6.4,13.6,11.4,21.8,14.8c9.2,3.8,19,5.6,28.9,5.5
	c12.3,0,21.9-2.2,28.8-6.7s10.4-11.3,10.4-20.4c0.1-4.1-0.8-8.2-2.8-11.8c-2-3.4-4.8-6.3-8.2-8.4c-4.3-2.7-8.9-4.7-13.8-6.1
	c-5.5-1.7-12-3.4-19.4-4.9c-7.5-1.6-14.2-3.3-19.9-5c-5.1-1.5-10-3.8-14.4-6.7c-3.7-2.5-6.7-5.9-8.8-9.8c-2-3.8-3-8.6-3-14.5
	c-0.1-5.8,1.1-11.6,3.7-16.8c2.4-4.9,5.9-9.1,10.3-12.4c4.7-3.5,10-6.1,15.6-7.6c6.6-1.8,13.4-2.6,20.2-2.6
	c8.3-0.1,16.5,1.2,24.3,4.1c7.2,2.8,13.8,7,19.4,12.4L579.1,109.5z"/>
<path d="M636.9,226.7V86.1H647v140.6H636.9z"/>
<path d="M859.1,226.7v-84.2l-30.5,61.2h-17.4l-30.5-61.2v84.1h-32.5V86.1h35.2l36.4,73.5l36.6-73.5h35v140.6H859.1z"/>
<path d="M1036.1,198.2v28.5h-98.8V86.1h97v28.5h-64.6V142h55.4v26.3h-55.4v29.9H1036.1z"/>
<path d="M1076.7,226.7V86.1h52.5c11.6,0,21.8,1.8,30.5,5.5c16.6,6.7,29.4,20.4,35.1,37.3c3,8.8,4.5,18,4.4,27.2
	c0.1,9.9-1.5,19.7-4.9,29c-3.1,8.3-7.9,15.9-14.2,22.2c-6.3,6.2-13.9,11.1-22.2,14.3c-9.2,3.4-19,5.1-28.8,5L1076.7,226.7z
	 M1166.2,156.2c0.1-5.7-0.8-11.5-2.5-16.9c-1.5-4.8-4-9.3-7.2-13.2c-3.2-3.7-7.2-6.6-11.7-8.5c-5-2.1-10.3-3.1-15.6-3h-20v83.6h20
	c5.4,0.1,10.9-1,15.8-3.2c4.5-2,8.4-5,11.6-8.8c3.2-3.9,5.6-8.4,7.1-13.2C1165.4,167.6,1166.3,161.9,1166.2,156.2L1166.2,156.2z"/>
<path d="M1238.2,226.7V86.1h32.5v140.6H1238.2z"/>
<path d="M1355.6,86.1h29.3l51.3,140.6H1403l-10.9-31.5h-43.8l-10.7,31.5h-33.3L1355.6,86.1z M1386.7,172.8l-16.4-49.7l-16.8,49.7
	L1386.7,172.8z"/>
</svg>
